<?xml version="1.0" encoding="UTF-8" standalone="no"?>
<!DOCTYPE svg PUBLIC "-//W3C//DTD SVG 1.1//EN" "http://www.w3.org/Graphics/SVG/1.1/DTD/svg11.dtd">
<svg width="100%" height="100%" viewBox="0 0 282 93" version="1.1" xmlns="http://www.w3.org/2000/svg" xmlns:xlink="http://www.w3.org/1999/xlink" xml:space="preserve" xmlns:serif="http://www.serif.com/" style="fill-rule:evenodd;clip-rule:evenodd;stroke-linejoin:round;stroke-miterlimit:2;">
    <g transform="matrix(1,0,0,1,-49.0602,-16.5195)">
        <g id="Hero-section" serif:id="Hero section">
        </g>
        <g id="Our-members" serif:id="Our members">
        </g>
        <g id="Across-the-stack-feature" serif:id="Across the stack feature">
        </g>
        <g id="Latest-from-GNI" serif:id="Latest from GNI">
        </g>
        <g id="Footer">
        </g>
        <g id="header" transform="matrix(1,0,0,1,0,-13)">
            <g id="Nav-button" serif:id="Nav button">
            </g>
            <g id="nav">
            </g>
            <g id="logo" transform="matrix(0.330563,0,0,0.348009,36.9501,26.3612)">
                <g>
                    <g transform="matrix(3.87642,-1.39591,-1.39591,-3.87642,176.213,146.223)">
                        <path d="M-1.329,-0.232C-3.497,-0.232 -5.254,1.524 -5.253,3.691C-5.254,5.859 -3.497,7.615 -1.329,7.616C0.838,7.616 2.595,5.86 2.594,3.692C2.595,1.524 0.838,-0.232 -1.329,-0.232" style="fill:rgb(238,100,63);fill-rule:nonzero;"/>
                    </g>
                    <g transform="matrix(-3.1887,-2.6091,-2.6091,3.1887,157.9,179.702)">
                        <path d="M-0.723,-2.024C-1.353,-2.024 -1.864,-1.513 -1.864,-0.883C-1.864,-0.253 -1.353,0.258 -0.723,0.258C-0.092,0.258 0.418,-0.253 0.417,-0.884C0.418,-1.513 -0.093,-2.024 -0.723,-2.024" style="fill:rgb(55,103,133);fill-rule:nonzero;"/>
                    </g>
                    <g transform="matrix(-3.18762,-2.6104,-2.6104,3.18762,135.326,190.39)">
                        <path d="M-0.658,-1.843C-1.23,-1.843 -1.696,-1.378 -1.696,-0.805C-1.697,-0.23 -1.232,0.234 -0.658,0.234C-0.084,0.235 0.38,-0.23 0.381,-0.804C0.381,-1.377 -0.084,-1.842 -0.658,-1.843" style="fill:rgb(55,103,133);fill-rule:nonzero;"/>
                    </g>
                    <g transform="matrix(-3.18813,-2.60979,-2.60979,3.18813,225.959,148.165)">
                        <path d="M-1.176,-3.292C-2.2,-3.292 -3.03,-2.461 -3.031,-1.437C-3.031,-0.411 -2.2,0.42 -1.176,0.42C-0.15,0.419 0.68,-0.412 0.68,-1.437C0.68,-2.461 -0.151,-3.292 -1.176,-3.292" style="fill:rgb(55,103,133);fill-rule:nonzero;"/>
                    </g>
                    <g transform="matrix(-3.1887,-2.6091,-2.6091,3.1887,242.827,149.974)">
                        <path d="M-0.722,-2.024C-1.352,-2.024 -1.864,-1.513 -1.863,-0.883C-1.863,-0.253 -1.352,0.258 -0.722,0.258C-0.092,0.257 0.42,-0.253 0.418,-0.884C0.419,-1.514 -0.093,-2.024 -0.722,-2.024" style="fill:rgb(55,103,133);fill-rule:nonzero;"/>
                    </g>
                    <g transform="matrix(-3.1886,-2.60921,-2.60921,3.1886,220.253,160.658)">
                        <path d="M-0.658,-1.842C-1.232,-1.842 -1.697,-1.377 -1.697,-0.804C-1.696,-0.23 -1.232,0.236 -0.658,0.234C-0.084,0.235 0.38,-0.23 0.381,-0.803C0.381,-1.377 -0.084,-1.843 -0.658,-1.842" style="fill:rgb(55,103,133);fill-rule:nonzero;"/>
                    </g>
                    <g transform="matrix(-2.42429,3.33137,3.33137,2.42429,170.944,106.722)">
                        <path d="M1.335,-2.623C0.423,-2.624 -0.316,-1.884 -0.316,-0.972C-0.317,-0.06 0.423,0.679 1.335,0.679C2.247,0.68 2.986,-0.06 2.986,-0.972C2.987,-1.884 2.247,-2.623 1.335,-2.623" style="fill:rgb(55,103,133);fill-rule:nonzero;"/>
                    </g>
                    <g transform="matrix(-0.719347,-4.05681,-4.05681,0.719347,206.616,198.341)">
                        <path d="M-1.526,-1.82C-2.381,-1.819 -3.074,-1.126 -3.074,-0.271C-3.074,0.586 -2.381,1.278 -1.526,1.279C-0.669,1.278 0.024,0.586 0.024,-0.27C0.023,-1.126 -0.669,-1.82 -1.526,-1.82" style="fill:rgb(55,103,133);fill-rule:nonzero;"/>
                    </g>
                    <g transform="matrix(-0.71943,-4.05679,-4.05679,0.71943,217.447,178.133)">
                        <path d="M-1.827,-2.18C-2.852,-2.18 -3.682,-1.349 -3.683,-0.324C-3.682,0.702 -2.852,1.532 -1.827,1.532C-0.802,1.532 0.028,0.701 0.029,-0.324C0.029,-1.348 -0.802,-2.178 -1.827,-2.18" style="fill:rgb(55,103,133);fill-rule:nonzero;"/>
                    </g>
                    <g transform="matrix(-0.718898,-4.05689,-4.05689,0.718898,227.509,191.815)">
                        <path d="M-1.123,-1.34C-1.753,-1.34 -2.263,-0.829 -2.264,-0.199C-2.264,0.43 -1.753,0.942 -1.123,0.941C-0.493,0.941 0.018,0.43 0.018,-0.2C0.018,-0.829 -0.493,-1.34 -1.123,-1.34" style="fill:rgb(55,103,133);fill-rule:nonzero;"/>
                    </g>
                    <g transform="matrix(-0.719743,-4.05674,-4.05674,0.719743,203.196,185.411)">
                        <path d="M-1.023,-1.221C-1.596,-1.221 -2.061,-0.756 -2.061,-0.182C-2.062,0.391 -1.596,0.856 -1.023,0.857C-0.449,0.857 0.016,0.392 0.016,-0.182C0.016,-0.755 -0.449,-1.22 -1.023,-1.221" style="fill:rgb(55,103,133);fill-rule:nonzero;"/>
                    </g>
                    <g transform="matrix(-3.18833,-2.60954,-2.60954,3.18833,94.6274,133.433)">
                        <path d="M-1.045,-2.928C-1.958,-2.928 -2.697,-2.189 -2.697,-1.277C-2.696,-0.365 -1.957,0.374 -1.045,0.375C-0.134,0.374 0.606,-0.366 0.605,-1.277C0.606,-2.189 -0.134,-2.929 -1.045,-2.928" style="fill:rgb(55,103,133);fill-rule:nonzero;"/>
                    </g>
                    <g transform="matrix(-3.18824,-2.60965,-2.60965,3.18824,106.246,164.474)">
                        <path d="M-0.981,-2.747C-1.837,-2.747 -2.531,-2.054 -2.53,-1.198C-2.53,-0.343 -1.837,0.35 -0.981,0.35C-0.125,0.35 0.569,-0.343 0.568,-1.198C0.568,-2.053 -0.125,-2.747 -0.981,-2.747" style="fill:rgb(55,103,133);fill-rule:nonzero;"/>
                    </g>
                    <g transform="matrix(-3.18813,-2.60979,-2.60979,3.18813,101.166,142.954)">
                        <path d="M-1.175,-3.291C-2.199,-3.292 -3.03,-2.461 -3.03,-1.436C-3.03,-0.411 -2.199,0.42 -1.175,0.42C-0.15,0.42 0.68,-0.411 0.68,-1.436C0.681,-2.46 -0.15,-3.291 -1.175,-3.291" style="fill:rgb(55,103,133);fill-rule:nonzero;"/>
                    </g>
                    <g transform="matrix(-3.18958,-2.60801,-2.60801,3.18958,118.034,144.765)">
                        <path d="M-0.722,-2.024C-1.352,-2.024 -1.863,-1.513 -1.862,-0.882C-1.863,-0.253 -1.352,0.258 -0.722,0.258C-0.091,0.258 0.419,-0.253 0.419,-0.883C0.419,-1.513 -0.092,-2.024 -0.722,-2.024" style="fill:rgb(55,103,133);fill-rule:nonzero;"/>
                    </g>
                    <g transform="matrix(-3.18939,-2.60824,-2.60824,3.18939,95.4597,155.451)">
                        <path d="M-0.658,-1.843C-1.231,-1.843 -1.697,-1.377 -1.696,-0.803C-1.696,-0.23 -1.231,0.235 -0.658,0.235C-0.083,0.235 0.382,-0.231 0.381,-0.805C0.381,-1.378 -0.085,-1.843 -0.658,-1.843" style="fill:rgb(55,103,133);fill-rule:nonzero;"/>
                    </g>
                    <g transform="matrix(4.09116,-0.487386,-0.487386,-4.09116,94.4091,164.56)">
                        <path d="M-0.22,-0.013C-1.245,-0.013 -2.074,0.817 -2.076,1.843C-2.076,2.868 -1.245,3.697 -0.22,3.698C0.805,3.698 1.636,2.868 1.636,1.842C1.636,0.817 0.806,-0.013 -0.22,-0.013" style="fill:rgb(55,103,133);fill-rule:nonzero;"/>
                    </g>
                    <g transform="matrix(4.09094,-0.489253,-0.489253,-4.09094,82.3083,170.111)">
                        <path d="M-0.135,-0.008C-0.766,-0.007 -1.276,0.503 -1.276,1.133C-1.276,1.764 -0.765,2.274 -0.135,2.274C0.495,2.273 1.006,1.763 1.006,1.132C1.005,0.502 0.494,-0.008 -0.135,-0.008" style="fill:rgb(55,103,133);fill-rule:nonzero;"/>
                    </g>
                    <g transform="matrix(4.09111,-0.487839,-0.487839,-4.09111,90.3837,145.672)">
                        <path d="M-0.123,-0.007C-0.696,-0.007 -1.161,0.458 -1.161,1.032C-1.162,1.605 -0.696,2.07 -0.123,2.07C0.451,2.07 0.916,1.605 0.915,1.031C0.916,0.457 0.45,-0.007 -0.123,-0.007" style="fill:rgb(55,103,133);fill-rule:nonzero;"/>
                    </g>
                    <g transform="matrix(-0.719784,-4.05673,-4.05673,0.719784,93.445,161.813)">
                        <path d="M-1.626,-1.939C-2.538,-1.939 -3.278,-1.199 -3.277,-0.288C-3.277,0.624 -2.538,1.364 -1.626,1.363C-0.715,1.363 0.026,0.624 0.025,-0.288C0.025,-1.199 -0.715,-1.94 -1.626,-1.939" style="fill:rgb(55,103,133);fill-rule:nonzero;"/>
                    </g>
                    <g transform="matrix(-0.71943,-4.05679,-4.05679,0.71943,92.6498,172.921)">
                        <path d="M-1.827,-2.18C-2.852,-2.18 -3.682,-1.349 -3.683,-0.324C-3.683,0.701 -2.852,1.531 -1.827,1.532C-0.802,1.532 0.028,0.701 0.029,-0.324C0.029,-1.349 -0.802,-2.179 -1.827,-2.18" style="fill:rgb(55,103,133);fill-rule:nonzero;"/>
                    </g>
                    <g transform="matrix(-0.718898,-4.05689,-4.05689,0.718898,102.711,186.605)">
                        <path d="M-1.123,-1.34C-1.753,-1.34 -2.263,-0.829 -2.263,-0.2C-2.264,0.43 -1.753,0.941 -1.123,0.941C-0.493,0.941 0.018,0.43 0.018,-0.2C0.018,-0.829 -0.492,-1.341 -1.123,-1.34" style="fill:rgb(55,103,133);fill-rule:nonzero;"/>
                    </g>
                    <g transform="matrix(-0.719743,-4.05674,-4.05674,0.719743,78.4025,180.2)">
                        <path d="M-1.022,-1.22C-1.596,-1.221 -2.061,-0.755 -2.061,-0.181C-2.061,0.392 -1.596,0.857 -1.022,0.858C-0.449,0.858 0.016,0.392 0.016,-0.181C0.016,-0.754 -0.448,-1.219 -1.022,-1.22" style="fill:rgb(55,103,133);fill-rule:nonzero;"/>
                    </g>
                    <g transform="matrix(-3.18813,-2.60979,-2.60979,3.18813,145.523,242.393)">
                        <path d="M-1.176,-3.292C-2.201,-3.292 -3.031,-2.461 -3.032,-1.437C-3.032,-0.412 -2.201,0.419 -1.176,0.419C-0.152,0.42 0.679,-0.411 0.679,-1.436C0.679,-2.461 -0.152,-3.292 -1.176,-3.292" style="fill:rgb(55,103,133);fill-rule:nonzero;"/>
                    </g>
                    <g transform="matrix(-3.1887,-2.6091,-2.6091,3.1887,162.386,244.206)">
                        <path d="M-0.723,-2.024C-1.353,-2.024 -1.864,-1.513 -1.864,-0.883C-1.864,-0.253 -1.353,0.258 -0.723,0.258C-0.093,0.258 0.418,-0.253 0.417,-0.884C0.417,-1.514 -0.094,-2.025 -0.723,-2.024" style="fill:rgb(55,103,133);fill-rule:nonzero;"/>
                    </g>
                    <g transform="matrix(-3.18762,-2.6104,-2.6104,3.18762,139.817,254.893)">
                        <path d="M-0.658,-1.843C-1.23,-1.843 -1.696,-1.378 -1.697,-0.804C-1.697,-0.23 -1.232,0.234 -0.658,0.234C-0.084,0.235 0.38,-0.23 0.381,-0.804C0.381,-1.377 -0.084,-1.842 -0.658,-1.843" style="fill:rgb(55,103,133);fill-rule:nonzero;"/>
                    </g>
                    <g transform="matrix(-2.62868,3.17257,3.17257,2.62868,172.386,48.8057)">
                        <path d="M4.02,-8.549C1.13,-8.586 -1.213,-6.278 -1.212,-3.396C-1.211,-0.514 1.13,1.853 4.02,1.89C6.909,1.926 9.252,-0.381 9.253,-3.264C9.252,-6.146 6.91,-8.512 4.02,-8.549" style="fill:rgb(119,118,118);fill-rule:nonzero;"/>
                    </g>
                    <g transform="matrix(-1.46973,-3.84903,-3.84903,1.46973,84.7227,90.7417)">
                        <path d="M-1.763,-2.56C-2.815,-2.551 -3.668,-1.699 -3.668,-0.656C-3.668,0.385 -2.815,1.222 -1.763,1.213C-0.71,1.205 0.142,0.352 0.142,-0.69C0.142,-1.732 -0.711,-2.57 -1.763,-2.56" style="fill:rgb(125,189,196);fill-rule:nonzero;"/>
                    </g>
                    <g transform="matrix(-1.46947,-3.84913,-3.84913,1.46947,244.883,115.891)">
                        <path d="M-2.43,-3.527C-3.881,-3.515 -5.055,-2.34 -5.056,-0.903C-5.055,0.532 -3.88,1.687 -2.43,1.674C-0.98,1.662 0.196,0.487 0.197,-0.949C0.196,-2.386 -0.98,-3.539 -2.43,-3.527" style="fill:rgb(125,189,196);fill-rule:nonzero;"/>
                    </g>
                    <g transform="matrix(-1.46922,-3.84923,-3.84923,1.46922,204.432,71.2376)">
                        <path d="M-2.159,-3.134C-3.446,-3.122 -4.49,-2.08 -4.49,-0.803C-4.49,0.472 -3.446,1.497 -2.159,1.485C-0.871,1.475 0.173,0.431 0.173,-0.844C0.173,-2.12 -0.871,-3.145 -2.159,-3.134" style="fill:rgb(125,189,196);fill-rule:nonzero;"/>
                    </g>
                    <g transform="matrix(-1.46881,-3.84938,-3.84938,1.46881,232.238,82.4273)">
                        <path d="M-1.464,-2.127C-2.339,-2.12 -3.047,-1.412 -3.047,-0.546C-3.047,0.32 -2.338,1.016 -1.464,1.009C-0.59,1.001 0.119,0.293 0.119,-0.573C0.119,-1.438 -0.59,-2.134 -1.464,-2.127" style="fill:rgb(125,189,196);fill-rule:nonzero;"/>
                    </g>
                    <g transform="matrix(-1.46881,-3.84938,-3.84938,1.46881,79.4325,155.832)">
                        <path d="M-1.464,-2.127C-2.338,-2.12 -3.047,-1.411 -3.047,-0.546C-3.048,0.321 -2.338,1.017 -1.464,1.009C-0.59,1.001 0.119,0.294 0.119,-0.572C0.119,-1.438 -0.589,-2.134 -1.464,-2.127" style="fill:rgb(125,189,196);fill-rule:nonzero;"/>
                    </g>
                    <g transform="matrix(-1.46881,-3.84938,-3.84938,1.46881,160.858,250.435)">
                        <path d="M-1.464,-2.127C-2.338,-2.12 -3.047,-1.411 -3.047,-0.546C-3.048,0.321 -2.339,1.016 -1.464,1.009C-0.59,1.001 0.118,0.293 0.119,-0.572C0.119,-1.438 -0.589,-2.134 -1.464,-2.127" style="fill:rgb(125,189,196);fill-rule:nonzero;"/>
                    </g>
                    <g transform="matrix(-1.46881,-3.84938,-3.84938,1.46881,252.963,192.584)">
                        <path d="M-1.464,-2.127C-2.339,-2.12 -3.047,-1.412 -3.047,-0.546C-3.047,0.32 -2.338,1.016 -1.464,1.009C-0.59,1.001 0.119,0.293 0.119,-0.573C0.119,-1.438 -0.59,-2.134 -1.464,-2.127" style="fill:rgb(125,189,196);fill-rule:nonzero;"/>
                    </g>
                    <g transform="matrix(-1.46881,-3.84938,-3.84938,1.46881,52.347,162.87)">
                        <path d="M-1.464,-2.127C-2.339,-2.12 -3.047,-1.412 -3.047,-0.546C-3.047,0.321 -2.338,1.016 -1.464,1.009C-0.589,1.001 0.119,0.293 0.119,-0.573C0.119,-1.438 -0.589,-2.135 -1.464,-2.127" style="fill:rgb(125,189,196);fill-rule:nonzero;"/>
                    </g>
                    <g transform="matrix(-2.87476,-2.95143,-2.95143,2.87476,231.39,241.523)">
                        <path d="M-2.136,-5.064C-3.784,-5.044 -5.12,-3.691 -5.121,-2.043C-5.12,-0.395 -3.783,0.922 -2.136,0.901C-0.488,0.88 0.848,-0.473 0.847,-2.121C0.847,-3.767 -0.488,-5.085 -2.136,-5.064" style="fill:rgb(85,197,207);fill-rule:nonzero;"/>
                    </g>
                    <g transform="matrix(-8.57324,-8.80265,-8.80265,8.57324,61.7562,153.606)">
                        <path d="M-6.101,-14.458C-9.177,-14.418 -11.873,-12.754 -13.37,-10.293C-14.164,-8.989 -14.621,-7.461 -14.621,-5.832C-14.621,-1.128 -10.806,2.636 -6.101,2.575C-1.396,2.515 2.419,-1.347 2.419,-6.051C2.42,-10.755 -1.395,-14.518 -6.101,-14.458" style="fill:rgb(85,197,207);fill-rule:nonzero;"/>
                    </g>
                    <g transform="matrix(-3.74625,-1.71486,-1.71486,3.74625,114.474,229.975)">
                        <path d="M-4.616,-21.174C-10.858,-21.113 -15.918,-16.098 -15.918,-9.972C-15.918,-3.847 -10.858,1.068 -4.616,1.006C1.627,0.945 6.687,-4.071 6.687,-10.196C6.687,-16.322 1.625,-21.236 -4.616,-21.174" style="fill:rgb(85,197,207);fill-rule:nonzero;"/>
                    </g>
                    <g transform="matrix(0,-4.12009,-4.12009,0,171.302,78.0275)">
                        <path d="M-4.809,-4.809C-7.499,-4.809 -9.68,-2.656 -9.68,0C-9.68,2.656 -7.499,4.809 -4.809,4.809C-2.119,4.809 0.062,2.656 0.062,0C0.062,-2.656 -2.119,-4.809 -4.809,-4.809" style="fill:rgb(85,106,110);fill-rule:nonzero;"/>
                    </g>
                    <g transform="matrix(-2.87459,-2.95159,-2.95159,2.87459,109.563,106.785)">
                        <path d="M-2.894,-6.857C-5.126,-6.828 -6.935,-4.996 -6.936,-2.766C-6.935,-0.535 -5.125,1.251 -2.894,1.222C-0.663,1.193 1.147,-0.64 1.147,-2.869C1.147,-5.101 -0.662,-6.886 -2.894,-6.857" style="fill:rgb(85,197,207);fill-rule:nonzero;"/>
                    </g>
                    <g transform="matrix(-2.87476,-2.95143,-2.95143,2.87476,80.0835,117.207)">
                        <path d="M-2.137,-5.063C-3.784,-5.043 -5.12,-3.69 -5.119,-2.042C-5.12,-0.394 -3.784,0.923 -2.137,0.901C-0.488,0.88 0.848,-0.473 0.847,-2.119C0.848,-3.767 -0.489,-5.084 -2.137,-5.063" style="fill:rgb(240,72,60);fill-rule:nonzero;"/>
                    </g>
                    <g transform="matrix(-2.87476,-2.95143,-2.95143,2.87476,127.46,256.442)">
                        <path d="M-2.137,-5.063C-3.785,-5.042 -5.121,-3.689 -5.12,-2.041C-5.12,-0.394 -3.784,0.924 -2.137,0.902C-0.488,0.881 0.848,-0.472 0.848,-2.119C0.847,-3.766 -0.489,-5.083 -2.137,-5.063" style="fill:rgb(238,100,63);fill-rule:nonzero;"/>
                    </g>
                    <g transform="matrix(-2.87463,-2.95155,-2.95155,2.87463,121.894,196.481)">
                        <path d="M-6.101,-14.458C-10.807,-14.397 -14.622,-10.535 -14.621,-5.832C-14.621,-1.128 -10.806,2.636 -6.101,2.575C-1.396,2.515 2.419,-1.347 2.419,-6.051C2.42,-10.755 -1.395,-14.518 -6.101,-14.458" style="fill:rgb(197,232,236);fill-rule:nonzero;"/>
                    </g>
                    <g transform="matrix(-2.8751,-2.95109,-2.95109,2.8751,153.096,116.306)">
                        <path d="M-2.136,-5.063C-3.784,-5.042 -5.12,-3.689 -5.119,-2.042C-5.12,-0.394 -3.783,0.923 -2.136,0.901C-0.487,0.879 0.849,-0.473 0.847,-2.12C0.848,-3.767 -0.489,-5.085 -2.136,-5.063" style="fill:rgb(197,232,236);fill-rule:nonzero;"/>
                    </g>
                    <g transform="matrix(-2.8751,-2.95109,-2.95109,2.8751,69.4743,233.357)">
                        <path d="M-2.136,-5.062C-3.784,-5.041 -5.12,-3.688 -5.12,-2.041C-5.119,-0.394 -3.783,0.924 -2.136,0.902C-0.488,0.88 0.849,-0.472 0.847,-2.119C0.848,-3.766 -0.489,-5.084 -2.136,-5.062" style="fill:rgb(85,197,207);fill-rule:nonzero;"/>
                    </g>
                    <g transform="matrix(-2.8751,-2.95109,-2.95109,2.8751,153.092,252.701)">
                        <path d="M-2.136,-5.064C-3.784,-5.043 -5.119,-3.69 -5.119,-2.043C-5.119,-0.395 -3.782,0.923 -2.136,0.9C-0.488,0.879 0.849,-0.473 0.848,-2.121C0.848,-3.767 -0.488,-5.086 -2.136,-5.064" style="fill:rgb(85,182,186);fill-rule:nonzero;"/>
                    </g>
                    <g transform="matrix(-2.87476,-2.95143,-2.95143,2.87476,77.7927,81.1662)">
                        <path d="M-2.137,-5.065C-3.784,-5.043 -5.12,-3.69 -5.121,-2.043C-5.12,-0.396 -3.784,0.922 -2.137,0.9C-0.489,0.88 0.847,-0.473 0.847,-2.12C0.847,-3.767 -0.489,-5.085 -2.137,-5.065" style="fill:rgb(85,197,207);fill-rule:nonzero;"/>
                    </g>
                    <g transform="matrix(-2.87468,-2.9515,-2.9515,2.87468,101.195,164.36)">
                        <path d="M-1.459,-3.46C-2.585,-3.445 -3.498,-2.521 -3.498,-1.396C-3.498,-0.27 -2.585,0.631 -1.459,0.616C-0.334,0.601 0.58,-0.323 0.579,-1.449C0.579,-2.574 -0.333,-3.475 -1.459,-3.46" style="fill:rgb(86,87,87);fill-rule:nonzero;"/>
                    </g>
                    <g transform="matrix(-2.87458,-2.9516,-2.9516,2.87458,170.919,182.63)">
                        <path d="M-2.013,-4.77C-3.565,-4.749 -4.823,-3.475 -4.823,-1.924C-4.824,-0.373 -3.565,0.868 -2.013,0.847C-0.461,0.829 0.798,-0.446 0.797,-1.997C0.797,-3.548 -0.462,-4.79 -2.013,-4.77" style="fill:rgb(119,118,118);fill-rule:nonzero;"/>
                    </g>
                    <g transform="matrix(-2.87427,-2.95191,-2.95191,2.87427,167.401,129.628)">
                        <path d="M-1.787,-4.235C-3.164,-4.217 -4.282,-3.087 -4.282,-1.709C-4.283,-0.331 -3.165,0.771 -1.787,0.753C-0.41,0.736 0.708,-0.394 0.709,-1.773C0.709,-3.15 -0.408,-4.253 -1.787,-4.235" style="fill:rgb(40,118,131);fill-rule:nonzero;"/>
                    </g>
                    <g transform="matrix(-2.87416,-2.95201,-2.95201,2.87416,199.805,58.4447)">
                        <path d="M-1.213,-2.875C-2.149,-2.863 -2.908,-2.095 -2.908,-1.16C-2.908,-0.225 -2.15,0.524 -1.213,0.512C-0.278,0.501 0.481,-0.268 0.48,-1.203C0.481,-2.138 -0.277,-2.887 -1.213,-2.875" style="fill:rgb(85,106,110);fill-rule:nonzero;"/>
                    </g>
                    <g transform="matrix(-2.87477,-2.95142,-2.95142,2.87477,79.5644,196.614)">
                        <path d="M-1.212,-2.874C-2.149,-2.863 -2.907,-2.095 -2.907,-1.159C-2.906,-0.224 -2.149,0.524 -1.212,0.512C-0.277,0.5 0.482,-0.268 0.481,-1.203C0.482,-2.139 -0.276,-2.887 -1.212,-2.874" style="fill:rgb(85,106,110);fill-rule:nonzero;"/>
                    </g>
                    <g transform="matrix(-2.87416,-2.95201,-2.95201,2.87416,88.9252,128.813)">
                        <path d="M-1.212,-2.874C-2.148,-2.863 -2.906,-2.094 -2.906,-1.159C-2.906,-0.224 -2.148,0.524 -1.212,0.513C-0.277,0.501 0.482,-0.267 0.482,-1.202C0.483,-2.138 -0.275,-2.886 -1.212,-2.874" style="fill:rgb(85,106,110);fill-rule:nonzero;"/>
                    </g>
                    <g transform="matrix(-2.87416,-2.95201,-2.95201,2.87416,266.398,158.377)">
                        <path d="M-1.213,-2.875C-2.149,-2.863 -2.907,-2.095 -2.907,-1.159C-2.907,-0.224 -2.149,0.524 -1.213,0.513C-0.278,0.501 0.482,-0.267 0.481,-1.202C0.482,-2.138 -0.276,-2.886 -1.213,-2.875" style="fill:rgb(85,106,110);fill-rule:nonzero;"/>
                    </g>
                    <g transform="matrix(-2.87477,-2.95142,-2.95142,2.87477,95.6822,251.144)">
                        <path d="M-1.212,-2.874C-2.149,-2.863 -2.906,-2.094 -2.906,-1.159C-2.906,-0.224 -2.148,0.525 -1.212,0.512C-0.277,0.5 0.482,-0.268 0.482,-1.202C0.482,-2.139 -0.276,-2.886 -1.212,-2.874" style="fill:rgb(119,118,118);fill-rule:nonzero;"/>
                    </g>
                    <g transform="matrix(-2.87416,-2.95201,-2.95201,2.87416,135.087,43.0244)">
                        <path d="M-1.213,-2.875C-2.149,-2.863 -2.908,-2.095 -2.907,-1.159C-2.908,-0.225 -2.15,0.524 -1.213,0.512C-0.278,0.501 0.481,-0.268 0.48,-1.203C0.481,-2.138 -0.277,-2.887 -1.213,-2.875" style="fill:rgb(85,197,207);fill-rule:nonzero;"/>
                    </g>
                    <g transform="matrix(-2.87462,-2.95156,-2.95156,2.87462,97.6021,193.986)">
                        <path d="M-3.933,-9.319C-6.966,-9.279 -9.425,-6.791 -9.425,-3.759C-9.424,-0.728 -6.966,1.699 -3.933,1.66C-0.899,1.62 1.559,-0.869 1.559,-3.901C1.559,-6.932 -0.9,-9.358 -3.933,-9.319" style="fill:rgb(54,117,136);fill-rule:nonzero;"/>
                    </g>
                    <g transform="matrix(-1.33175,3.89892,3.89892,1.33175,184.981,249.648)">
                        <path d="M1.841,-2.574C0.755,-2.583 -0.124,-1.719 -0.125,-0.644C-0.125,0.43 0.756,1.308 1.841,1.317C2.927,1.325 3.806,0.461 3.807,-0.614C3.806,-1.689 2.926,-2.566 1.841,-2.574" style="fill:rgb(88,79,92);fill-rule:nonzero;"/>
                    </g>
                    <g transform="matrix(-1.33212,3.8988,3.8988,1.33212,75.0281,118.174)">
                        <path d="M2.538,-3.548C1.042,-3.559 -0.172,-2.369 -0.172,-0.887C-0.172,0.594 1.041,1.804 2.538,1.815C4.034,1.828 5.247,0.636 5.247,-0.845C5.248,-2.326 4.034,-3.537 2.538,-3.548" style="fill:rgb(88,79,92);fill-rule:nonzero;"/>
                    </g>
                    <g transform="matrix(-1.33244,3.89869,3.89869,1.33244,77.8463,182.806)">
                        <path d="M2.253,-3.152C0.925,-3.163 -0.152,-2.104 -0.154,-0.79C-0.153,0.525 0.923,1.6 2.253,1.61C3.58,1.621 4.658,0.563 4.659,-0.751C4.658,-2.067 3.582,-3.141 2.253,-3.152" style="fill:rgb(88,79,92);fill-rule:nonzero;"/>
                    </g>
                    <g transform="matrix(-1.33152,3.899,3.899,1.33152,47.3659,155.88)">
                        <path d="M1.53,-2.14C0.627,-2.147 -0.103,-1.428 -0.104,-0.536C-0.103,0.357 0.628,1.087 1.53,1.094C2.432,1.1 3.163,0.382 3.164,-0.51C3.163,-1.403 2.432,-2.133 1.53,-2.14" style="fill:rgb(88,79,92);fill-rule:nonzero;"/>
                    </g>
                    <g transform="matrix(-1.33152,3.899,3.899,1.33152,282.479,208.031)">
                        <path d="M1.53,-2.139C0.628,-2.146 -0.104,-1.428 -0.103,-0.535C-0.104,0.358 0.628,1.087 1.53,1.094C2.432,1.1 3.164,0.383 3.163,-0.51C3.164,-1.403 2.432,-2.132 1.53,-2.139" style="fill:rgb(88,79,92);fill-rule:nonzero;"/>
                    </g>
                    <g transform="matrix(-1.33152,3.899,3.899,1.33152,226.384,74.2185)">
                        <path d="M1.53,-2.139C0.628,-2.146 -0.104,-1.428 -0.103,-0.535C-0.103,0.358 0.629,1.088 1.53,1.094C2.432,1.1 3.164,0.382 3.164,-0.51C3.164,-1.403 2.432,-2.132 1.53,-2.139" style="fill:rgb(88,79,92);fill-rule:nonzero;"/>
                    </g>
                    <g transform="matrix(-1.33152,3.899,3.899,1.33152,115.553,59.4784)">
                        <path d="M1.53,-2.139C0.628,-2.146 -0.104,-1.428 -0.103,-0.535C-0.104,0.358 0.628,1.087 1.53,1.094C2.432,1.1 3.164,0.382 3.163,-0.51C3.164,-1.403 2.432,-2.132 1.53,-2.139" style="fill:rgb(88,79,92);fill-rule:nonzero;"/>
                    </g>
                    <g transform="matrix(-1.33152,3.899,3.899,1.33152,256.568,215.913)">
                        <path d="M1.53,-2.139C0.628,-2.146 -0.104,-1.428 -0.103,-0.535C-0.104,0.358 0.628,1.087 1.53,1.094C2.432,1.101 3.164,0.383 3.163,-0.51C3.164,-1.403 2.432,-2.132 1.53,-2.139" style="fill:rgb(88,79,92);fill-rule:nonzero;"/>
                    </g>
                    <g transform="matrix(-3.42877,-2.28445,-2.28445,3.42877,72.9722,146.935)">
                        <path d="M-1.088,-3.592C-2.166,-3.58 -3.038,-2.691 -3.038,-1.609C-3.039,-0.525 -2.165,0.342 -1.088,0.329C-0.011,0.316 0.863,-0.573 0.863,-1.656C0.864,-2.738 -0.01,-3.605 -1.088,-3.592" style="fill:rgb(238,100,63);fill-rule:nonzero;"/>
                    </g>
                    <g transform="matrix(-3.42918,-2.28383,-2.28383,3.42918,164.842,52.494)">
                        <path d="M-1.33,-4.396C-2.649,-4.38 -3.718,-3.293 -3.718,-1.968C-3.717,-0.643 -2.648,0.418 -1.33,0.402C-0.011,0.387 1.058,-0.701 1.059,-2.026C1.057,-3.352 -0.011,-4.412 -1.33,-4.396" style="fill:rgb(238,100,63);fill-rule:nonzero;"/>
                    </g>
                    <g transform="matrix(-3.4289,-2.28425,-2.28425,3.4289,192.142,49.9684)">
                        <path d="M-0.902,-2.985C-1.797,-2.973 -2.524,-2.237 -2.524,-1.337C-2.524,-0.437 -1.798,0.283 -0.902,0.273C-0.007,0.262 0.719,-0.475 0.719,-1.375C0.719,-2.275 -0.008,-2.996 -0.902,-2.985" style="fill:rgb(238,100,63);fill-rule:nonzero;"/>
                    </g>
                    <g transform="matrix(-3.4289,-2.28425,-2.28425,3.4289,106.802,204.084)">
                        <path d="M-0.902,-2.985C-1.797,-2.974 -2.524,-2.237 -2.524,-1.337C-2.524,-0.437 -1.798,0.283 -0.902,0.273C-0.007,0.262 0.719,-0.476 0.719,-1.376C0.719,-2.275 -0.008,-2.996 -0.902,-2.985" style="fill:rgb(250,249,250);fill-rule:nonzero;"/>
                    </g>
                    <g transform="matrix(-3.42832,-2.28512,-2.28512,3.42832,249.465,230.51)">
                        <path d="M-0.902,-2.985C-1.797,-2.975 -2.524,-2.237 -2.524,-1.337C-2.525,-0.437 -1.799,0.283 -0.902,0.273C-0.008,0.262 0.718,-0.475 0.718,-1.376C0.718,-2.275 -0.007,-2.995 -0.902,-2.985" style="fill:rgb(238,100,63);fill-rule:nonzero;"/>
                    </g>
                    <g transform="matrix(-3.4289,-2.28425,-2.28425,3.4289,274.461,130.125)">
                        <path d="M-0.902,-2.984C-1.797,-2.973 -2.524,-2.236 -2.524,-1.336C-2.523,-0.437 -1.798,0.284 -0.902,0.274C-0.007,0.263 0.719,-0.475 0.719,-1.375C0.718,-2.274 -0.008,-2.995 -0.902,-2.984" style="fill:rgb(238,100,63);fill-rule:nonzero;"/>
                    </g>
                    <g transform="matrix(-3.42832,-2.28512,-2.28512,3.42832,88.1548,226.37)">
                        <path d="M-0.903,-2.985C-1.798,-2.974 -2.525,-2.237 -2.525,-1.337C-2.525,-0.437 -1.8,0.283 -0.903,0.273C-0.009,0.263 0.718,-0.475 0.718,-1.375C0.718,-2.275 -0.008,-2.996 -0.903,-2.985" style="fill:rgb(238,100,63);fill-rule:nonzero;"/>
                    </g>
                    <g transform="matrix(-3.42832,-2.28512,-2.28512,3.42832,242.839,150.503)">
                        <path d="M-0.904,-2.985C-1.799,-2.974 -2.525,-2.236 -2.525,-1.336C-2.525,-0.437 -1.799,0.283 -0.904,0.274C-0.008,0.263 0.718,-0.475 0.718,-1.375C0.718,-2.274 -0.008,-2.995 -0.904,-2.985" style="fill:rgb(250,249,250);fill-rule:nonzero;"/>
                    </g>
                    <g transform="matrix(-3.42891,-2.28423,-2.28423,3.42891,154.979,67.986)">
                        <path d="M-1.111,-3.669C-2.212,-3.656 -3.103,-2.748 -3.104,-1.642C-3.104,-0.537 -2.212,0.35 -1.111,0.337C-0.009,0.323 0.882,-0.585 0.882,-1.69C0.883,-2.796 -0.01,-3.683 -1.111,-3.669" style="fill:rgb(250,249,250);fill-rule:nonzero;"/>
                    </g>
                    <g transform="matrix(-3.42844,-2.28494,-2.28494,3.42844,256.662,203.289)">
                        <path d="M-1.111,-3.669C-2.211,-3.656 -3.104,-2.749 -3.105,-1.643C-3.105,-0.537 -2.213,0.349 -1.111,0.337C-0.01,0.324 0.882,-0.584 0.882,-1.689C0.882,-2.796 -0.01,-3.683 -1.111,-3.669" style="fill:rgb(250,249,250);fill-rule:nonzero;"/>
                    </g>
                    <g transform="matrix(0,-3.7828,-3.7828,0,241.805,190.906)">
                        <path d="M-2.864,-2.865C-4.446,-2.865 -5.729,-1.582 -5.729,-0C-5.729,1.581 -4.446,2.864 -2.864,2.864C-1.282,2.864 0,1.581 0,-0C0,-1.582 -1.282,-2.865 -2.864,-2.865" style="fill:rgb(85,106,110);fill-rule:nonzero;"/>
                    </g>
                    <g transform="matrix(0,-6.71142,-6.71142,0,247.286,68.4083)">
                        <path d="M-3.255,-3.255C-5.053,-3.255 -6.51,-1.798 -6.51,0C-6.51,1.798 -5.053,3.255 -3.255,3.255C-1.458,3.255 0,1.798 0,0C0,-1.798 -1.458,-3.255 -3.255,-3.255" style="fill:rgb(67,155,170);fill-rule:nonzero;"/>
                    </g>
                    <g transform="matrix(0,-4.12009,-4.12009,0,68.0487,71.6273)">
                        <path d="M-3.255,-3.255C-5.052,-3.255 -6.51,-1.798 -6.51,0C-6.51,1.797 -5.052,3.255 -3.255,3.255C-1.457,3.255 0,1.797 0,0C0,-1.798 -1.457,-3.255 -3.255,-3.255" style="fill:rgb(67,155,170);fill-rule:nonzero;"/>
                    </g>
                    <g transform="matrix(0,-4.12009,-4.12009,0,83.4373,237.663)">
                        <path d="M-2.718,-2.718C-4.219,-2.718 -5.436,-1.501 -5.436,-0C-5.436,1.501 -4.219,2.718 -2.718,2.718C-1.217,2.718 -0,1.501 -0,-0C-0,-1.501 -1.217,-2.718 -2.718,-2.718" style="fill:rgb(67,155,170);fill-rule:nonzero;"/>
                    </g>
                    <g transform="matrix(0,-4.12009,-4.12009,0,123.967,50.5395)">
                        <path d="M-2.118,-2.118C-3.287,-2.118 -4.236,-1.17 -4.236,-0.001C-4.236,1.17 -3.287,2.118 -2.118,2.118C-0.949,2.118 0,1.17 0,-0.001C0,-1.17 -0.949,-2.118 -2.118,-2.118" style="fill:rgb(85,106,110);fill-rule:nonzero;"/>
                    </g>
                    <g transform="matrix(0,-4.12009,-4.12009,0,50.1222,143.67)">
                        <path d="M-1.968,-1.968C-3.055,-1.968 -3.936,-1.087 -3.936,0C-3.936,1.087 -3.055,1.968 -1.968,1.968C-0.881,1.968 0,1.087 0,0C0,-1.087 -0.881,-1.968 -1.968,-1.968" style="fill:rgb(85,106,110);fill-rule:nonzero;"/>
                    </g>
                    <g transform="matrix(0,-4.12009,-4.12009,0,290.315,174.947)">
                        <path d="M-2.181,-2.181C-3.385,-2.181 -4.361,-1.204 -4.361,0.001C-4.361,1.204 -3.385,2.181 -2.181,2.181C-0.976,2.181 -0,1.204 -0,0.001C-0,-1.204 -0.976,-2.181 -2.181,-2.181" style="fill:rgb(67,155,170);fill-rule:nonzero;"/>
                    </g>
                    <g transform="matrix(0,-4.12009,-4.12009,0,228.324,79.6525)">
                        <path d="M-1.669,-1.669C-2.591,-1.669 -3.338,-0.922 -3.338,0C-3.338,0.922 -2.591,1.669 -1.669,1.669C-0.747,1.669 0,0.922 0,0C0,-0.922 -0.747,-1.669 -1.669,-1.669" style="fill:rgb(85,106,110);fill-rule:nonzero;"/>
                    </g>
                    <g transform="matrix(0,-4.12009,-4.12009,0,201.292,261.057)">
                        <path d="M-1.823,-1.823C-2.829,-1.823 -3.645,-1.006 -3.645,-0C-3.645,1.006 -2.829,1.823 -1.823,1.823C-0.817,1.823 -0,1.006 -0,-0C-0,-1.006 -0.817,-1.823 -1.823,-1.823" style="fill:rgb(67,155,170);fill-rule:nonzero;"/>
                    </g>
                    <g transform="matrix(0,-4.12009,-4.12009,0,224.765,44.3663)">
                        <path d="M-2.083,-2.083C-3.234,-2.083 -4.166,-1.15 -4.166,0C-4.166,1.15 -3.234,2.083 -2.083,2.083C-0.933,2.083 0,1.15 0,0C0,-1.15 -0.933,-2.083 -2.083,-2.083" style="fill:rgb(67,155,170);fill-rule:nonzero;"/>
                    </g>
                    <g transform="matrix(0,-4.12009,-4.12009,0,276.904,100.173)">
                        <path d="M-3.076,-3.076C-4.775,-3.076 -6.152,-1.698 -6.152,0C-6.152,1.699 -4.775,3.076 -3.076,3.076C-1.377,3.076 0,1.699 0,0C0,-1.698 -1.377,-3.076 -3.076,-3.076" style="fill:rgb(67,155,170);fill-rule:nonzero;"/>
                    </g>
                    <g transform="matrix(0,-4.12009,-4.12009,0,228.197,201.559)">
                        <path d="M-2.896,-2.898C-4.496,-2.898 -5.794,-1.601 -5.794,-0.001C-5.794,1.6 -4.496,2.896 -2.896,2.896C-1.296,2.896 -0.001,1.6 -0.001,-0.001C-0.001,-1.601 -1.296,-2.898 -2.896,-2.898" style="fill:rgb(67,155,170);fill-rule:nonzero;"/>
                    </g>
                    <g transform="matrix(0,-4.12009,-4.12009,0,94.6233,171.577)">
                        <path d="M-2.865,-2.865C-4.447,-2.865 -5.729,-1.583 -5.729,-0.001C-5.729,1.582 -4.447,2.865 -2.865,2.865C-1.283,2.865 -0.001,1.582 -0.001,-0.001C-0.001,-1.583 -1.283,-2.865 -2.865,-2.865" style="fill:rgb(85,106,110);fill-rule:nonzero;"/>
                    </g>
                    <g transform="matrix(0,-4.12009,-4.12009,0,67.6202,127.932)">
                        <path d="M-3.076,-3.076C-4.775,-3.076 -6.151,-1.698 -6.151,0C-6.151,1.699 -4.775,3.076 -3.076,3.076C-1.376,3.076 0,1.699 0,0C0,-1.698 -1.376,-3.076 -3.076,-3.076" style="fill:rgb(67,155,170);fill-rule:nonzero;"/>
                    </g>
                    <g transform="matrix(0,-4.12009,-4.12009,0,164.446,169.162)">
                        <path d="M-2.417,-2.416C-3.751,-2.416 -4.833,-1.334 -4.833,-0C-4.833,1.335 -3.751,2.417 -2.417,2.417C-1.083,2.417 -0,1.335 -0,-0C-0,-1.334 -1.083,-2.416 -2.417,-2.416" style="fill:rgb(85,106,110);fill-rule:nonzero;"/>
                    </g>
                    <g transform="matrix(0,-4.12009,-4.12009,0,229.981,138.349)">
                        <path d="M-2.718,-2.719C-4.219,-2.719 -5.436,-1.502 -5.436,-0.001C-5.436,1.501 -4.219,2.718 -2.718,2.718C-1.217,2.718 -0.001,1.501 -0.001,-0.001C-0.001,-1.502 -1.217,-2.719 -2.718,-2.719" style="fill:rgb(67,155,170);fill-rule:nonzero;"/>
                    </g>
                    <g transform="matrix(0,-4.12009,-4.12009,0,173.268,242.611)">
                        <path d="M-2.118,-2.118C-3.287,-2.118 -4.236,-1.17 -4.236,-0.001C-4.236,1.17 -3.287,2.118 -2.118,2.118C-0.949,2.118 0,1.17 0,-0.001C0,-1.17 -0.949,-2.118 -2.118,-2.118" style="fill:rgb(85,106,110);fill-rule:nonzero;"/>
                    </g>
                    <g transform="matrix(0,-4.12009,-4.12009,0,126.406,228.327)">
                        <path d="M-2.36,-2.36C-3.663,-2.36 -4.719,-1.303 -4.719,-0.001C-4.719,1.302 -3.663,2.36 -2.36,2.36C-1.057,2.36 -0.001,1.302 -0.001,-0.001C-0.001,-1.303 -1.057,-2.36 -2.36,-2.36" style="fill:rgb(67,155,170);fill-rule:nonzero;"/>
                    </g>
                    <g transform="matrix(0,-4.12009,-4.12009,0,213.636,143.236)">
                        <path d="M-1.822,-1.822C-2.828,-1.822 -3.644,-1.007 -3.644,-0.001C-3.644,1.006 -2.828,1.822 -1.822,1.822C-0.816,1.822 0,1.006 0,-0.001C0,-1.007 -0.816,-1.822 -1.822,-1.822" style="fill:rgb(67,155,170);fill-rule:nonzero;"/>
                    </g>
                    <g transform="matrix(0,-4.12009,-4.12009,0,106.221,141.623)">
                        <path d="M-2.002,-2.002C-3.107,-2.002 -4.002,-1.106 -4.002,-0.001C-4.002,1.104 -3.107,2.002 -2.002,2.002C-0.897,2.002 -0.001,1.104 -0.001,-0.001C-0.001,-1.106 -0.897,-2.002 -2.002,-2.002" style="fill:rgb(67,155,170);fill-rule:nonzero;"/>
                    </g>
                    <g transform="matrix(0,-4.12009,-4.12009,0,80.7716,140.264)">
                        <path d="M-1.823,-1.823C-2.829,-1.823 -3.645,-1.006 -3.645,-0C-3.645,1.006 -2.829,1.823 -1.823,1.823C-0.816,1.823 -0,1.006 -0,-0C-0,-1.006 -0.816,-1.823 -1.823,-1.823" style="fill:rgb(67,155,170);fill-rule:nonzero;"/>
                    </g>
                    <g transform="matrix(0,-4.12009,-4.12009,0,216.178,152.198)">
                        <path d="M-2.18,-2.18C-3.383,-2.18 -4.361,-1.204 -4.361,-0C-4.361,1.204 -3.383,2.18 -2.18,2.18C-0.976,2.18 0.001,1.204 0.001,-0C0.001,-1.204 -0.976,-2.18 -2.18,-2.18" style="fill:rgb(67,155,170);fill-rule:nonzero;"/>
                    </g>
                    <g transform="matrix(-2.87428,-2.95189,-2.95189,2.87428,180.404,230.21)">
                        <path d="M-3.214,-7.615C-5.692,-7.583 -7.701,-5.549 -7.702,-3.072C-7.702,-0.595 -5.693,1.388 -3.214,1.356C-0.736,1.324 1.273,-0.71 1.273,-3.187C1.273,-5.665 -0.735,-7.647 -3.214,-7.615" style="fill:rgb(36,138,162);fill-rule:nonzero;"/>
                    </g>
                    <g transform="matrix(-2.87455,-2.95163,-2.95163,2.87455,101.03,91.4602)">
                        <path d="M-5.228,-12.387C-9.258,-12.334 -12.527,-9.026 -12.526,-4.998C-12.526,-0.967 -9.258,2.257 -5.228,2.204C-1.197,2.153 2.071,-1.156 2.071,-5.185C2.071,-9.214 -1.197,-12.439 -5.228,-12.387" style="fill:rgb(54,117,136);fill-rule:nonzero;"/>
                    </g>
                    <g transform="matrix(-2.87463,-2.95155,-2.95155,2.87463,163.602,130.658)">
                        <path d="M-7.56,-17.914C-13.389,-17.838 -18.116,-13.054 -18.115,-7.226C-18.115,-1.398 -13.39,3.264 -7.56,3.189C-1.73,3.114 2.996,-1.671 2.996,-7.499C2.996,-13.326 -1.73,-17.989 -7.56,-17.914" style="fill:rgb(67,155,170);fill-rule:nonzero;"/>
                    </g>
                    <g transform="matrix(-2.87423,-2.95195,-2.95195,2.87423,109.138,201.464)">
                        <path d="M-1.937,-4.59C-3.43,-4.571 -4.642,-3.345 -4.642,-1.851C-4.642,-0.358 -3.431,0.837 -1.937,0.818C-0.444,0.799 0.768,-0.427 0.768,-1.921C0.768,-3.414 -0.443,-4.609 -1.937,-4.59" style="fill:rgb(186,30,67);fill-rule:nonzero;"/>
                    </g>
                    <g transform="matrix(-2.87465,-2.95153,-2.95153,2.87465,188.924,83.677)">
                        <path d="M-4.338,-10.281C-7.684,-10.239 -10.397,-7.492 -10.396,-4.147C-10.397,-0.802 -7.683,1.875 -4.338,1.831C-0.991,1.787 1.721,-0.959 1.722,-4.304C1.721,-7.649 -0.991,-10.324 -4.338,-10.281" style="fill:rgb(153,216,222);fill-rule:nonzero;"/>
                    </g>
                    <g transform="matrix(-2.87456,-2.95162,-2.95162,2.87456,95.435,203.919)">
                        <path d="M-3.123,-7.399C-5.53,-7.367 -7.482,-5.392 -7.482,-2.984C-7.482,-0.578 -5.531,1.348 -3.123,1.317C-0.715,1.286 1.237,-0.69 1.237,-3.097C1.237,-5.504 -0.715,-7.43 -3.123,-7.399" style="fill:rgb(85,106,110);fill-rule:nonzero;"/>
                    </g>
                    <g transform="matrix(-2.87455,-2.95162,-2.95162,2.87455,92.761,149.981)">
                        <path d="M-1.724,-4.085C-3.053,-4.068 -4.132,-2.977 -4.131,-1.648C-4.131,-0.318 -3.054,0.745 -1.724,0.727C-0.395,0.711 0.683,-0.381 0.683,-1.709C0.683,-3.039 -0.395,-4.102 -1.724,-4.085" style="fill:rgb(67,155,170);fill-rule:nonzero;"/>
                    </g>
                    <g transform="matrix(-3.74618,-1.71503,-1.71503,3.74618,93.482,110.906)">
                        <path d="M-2.124,-9.742C-4.918,-9.715 -7.184,-7.407 -7.184,-4.59C-7.184,-1.771 -4.918,0.491 -2.124,0.463C0.67,0.436 2.936,-1.872 2.936,-4.689C2.936,-7.507 0.67,-9.77 -2.124,-9.742" style="fill:rgb(197,232,236);fill-rule:nonzero;"/>
                    </g>
                    <g transform="matrix(3.87642,-1.39591,-1.39591,-3.87642,106.629,131.613)">
                        <path d="M-1.329,-0.232C-3.497,-0.232 -5.254,1.524 -5.253,3.691C-5.254,5.859 -3.497,7.615 -1.329,7.616C0.838,7.616 2.595,5.86 2.594,3.693C2.595,1.524 0.838,-0.232 -1.329,-0.232" style="fill:rgb(238,100,63);fill-rule:nonzero;"/>
                    </g>
                    <g transform="matrix(3.87628,-1.39627,-1.39627,-3.87628,236.309,237.181)">
                        <path d="M-1.944,-0.339C-5.111,-0.339 -7.678,2.229 -7.678,5.396C-7.678,8.563 -5.11,11.13 -1.944,11.13C1.224,11.13 3.792,8.563 3.791,5.396C3.791,2.228 1.223,-0.339 -1.944,-0.339" style="fill:rgb(238,100,63);fill-rule:nonzero;"/>
                    </g>
                    <g transform="matrix(3.87608,-1.39683,-1.39683,-3.87608,227.179,98.7087)">
                        <path d="M-0.817,-0.143C-2.149,-0.143 -3.229,0.937 -3.229,2.268C-3.228,3.6 -2.148,4.679 -0.817,4.68C0.514,4.679 1.594,3.599 1.594,2.268C1.593,0.937 0.514,-0.143 -0.817,-0.143" style="fill:rgb(212,87,79);fill-rule:nonzero;"/>
                    </g>
                    <g transform="matrix(3.8762,-1.3965,-1.3965,-3.8762,288.544,87.8049)">
                        <path d="M-0.546,-0.095C-1.436,-0.095 -2.157,0.626 -2.157,1.516C-2.157,2.406 -1.436,3.126 -0.546,3.126C0.344,3.127 1.065,2.405 1.065,1.515C1.064,0.625 0.343,-0.096 -0.546,-0.095" style="fill:rgb(212,87,79);fill-rule:nonzero;"/>
                    </g>
                    <g transform="matrix(3.87644,-1.39585,-1.39585,-3.87644,238.55,217.639)">
                        <path d="M-1.088,-0.19C-2.861,-0.19 -4.299,1.248 -4.299,3.021C-4.299,4.795 -2.862,6.233 -1.088,6.233C0.686,6.233 2.124,4.795 2.124,3.022C2.124,1.248 0.686,-0.19 -1.088,-0.19" style="fill:rgb(114,204,211);fill-rule:nonzero;"/>
                    </g>
                    <g transform="matrix(3.87661,-1.39537,-1.39537,-3.87661,221.988,210.005)">
                        <path d="M-0.545,-0.095C-1.435,-0.096 -2.157,0.625 -2.156,1.515C-2.156,2.405 -1.436,3.126 -0.545,3.126C0.344,3.126 1.066,2.405 1.065,1.515C1.065,0.626 0.344,-0.095 -0.545,-0.095" style="fill:rgb(85,154,149);fill-rule:nonzero;"/>
                    </g>
                    <g transform="matrix(3.87673,-1.39502,-1.39502,-3.87673,137.217,21.9942)">
                        <path d="M-0.6,-0.105C-1.577,-0.105 -2.371,0.688 -2.371,1.666C-2.371,2.643 -1.578,3.437 -0.6,3.436C0.378,3.437 1.171,2.645 1.171,1.666C1.171,0.689 0.379,-0.104 -0.6,-0.105" style="fill:rgb(238,100,63);fill-rule:nonzero;"/>
                    </g>
                    <g transform="matrix(3.87638,-1.39599,-1.39599,-3.87638,95.8882,214.751)">
                        <path d="M-1.246,-0.218C-3.275,-0.217 -4.922,1.428 -4.921,3.458C-4.923,5.489 -3.276,7.134 -1.246,7.134C0.784,7.133 2.429,5.489 2.429,3.459C2.43,1.428 0.784,-0.217 -1.246,-0.218" style="fill:rgb(212,87,79);fill-rule:nonzero;"/>
                    </g>
                    <g transform="matrix(3.87642,-1.3959,-1.3959,-3.87642,78.3819,209.889)">
                        <path d="M-0.709,-0.124C-1.864,-0.123 -2.8,0.812 -2.8,1.967C-2.8,3.122 -1.864,4.058 -0.709,4.059C0.446,4.058 1.382,3.122 1.383,1.967C1.381,0.812 0.446,-0.124 -0.709,-0.124" style="fill:rgb(114,204,211);fill-rule:nonzero;"/>
                    </g>
                    <g transform="matrix(0,-4.12009,-4.12009,0,92.2007,77.18)">
                        <path d="M-2.211,-2.21C-3.432,-2.21 -4.421,-1.221 -4.421,-0C-4.421,1.222 -3.432,2.211 -2.211,2.211C-0.99,2.211 0,1.222 0,-0C0,-1.221 -0.99,-2.21 -2.211,-2.21" style="fill:rgb(109,207,246);fill-rule:nonzero;"/>
                    </g>
                    <g transform="matrix(0,-4.12009,-4.12009,0,142.985,240.308)">
                        <path d="M-2.211,-2.211C-3.432,-2.211 -4.422,-1.221 -4.422,0C-4.422,1.221 -3.432,2.211 -2.211,2.211C-0.99,2.211 -0,1.221 -0,0C-0,-1.221 -0.99,-2.211 -2.211,-2.211" style="fill:rgb(109,207,246);fill-rule:nonzero;"/>
                    </g>
                    <g transform="matrix(0,-4.12009,-4.12009,0,76.9811,118.508)">
                        <path d="M-2.814,-2.813C-4.368,-2.813 -5.627,-1.553 -5.627,0C-5.627,1.554 -4.368,2.814 -2.814,2.814C-1.26,2.814 0,1.554 0,0C0,-1.553 -1.26,-2.813 -2.814,-2.813" style="fill:white;fill-rule:nonzero;"/>
                    </g>
                </g>
                <g transform="matrix(0.937944,0,0,0.950296,36.6259,9.6633)">
                    <path d="M380.979,33.624C370.145,33.624 360.92,37.329 353.304,44.634C345.796,51.939 342.041,61.044 342.041,71.949C342.041,82.854 345.796,92.065 353.304,99.37C360.92,106.675 370.145,110.275 380.979,110.275C392.564,110.275 402.218,106.252 409.833,98.099L409.833,68.561L378.619,68.561L378.619,76.184L401.467,76.184L401.467,95.241C395.782,100.217 388.917,102.652 380.979,102.652C372.183,102.652 364.889,99.793 359.097,93.97C353.304,88.148 350.408,80.737 350.408,71.949C350.408,63.162 353.304,55.857 359.097,50.034C364.889,44.211 372.183,41.246 380.979,41.246C389.024,41.246 395.889,43.787 401.574,48.975L406.83,43.258C399.751,36.8 391.169,33.624 380.979,33.624Z" style="fill:rgb(98,99,102);fill-rule:nonzero;"/>
                    <path d="M476.124,108.792L476.124,101.17L445.338,101.17L445.338,35L436.972,35L436.972,108.792L476.124,108.792Z" style="fill:rgb(98,99,102);fill-rule:nonzero;"/>
                    <path d="M503.047,99.37C510.663,106.675 519.888,110.275 530.722,110.275C541.556,110.275 550.781,106.675 558.289,99.37C565.905,92.065 569.66,82.854 569.66,71.949C569.66,61.044 565.905,51.939 558.289,44.634C550.781,37.329 541.556,33.624 530.722,33.624C519.888,33.624 510.663,37.329 503.047,44.634C495.539,51.939 491.785,61.044 491.785,71.949C491.785,82.854 495.539,92.065 503.047,99.37ZM508.733,50.034C514.632,44.211 521.926,41.246 530.722,41.246C539.518,41.246 546.812,44.211 552.604,50.034C558.397,55.857 561.293,63.162 561.293,71.949C561.293,80.737 558.397,88.148 552.604,93.97C546.812,99.793 539.518,102.652 530.722,102.652C521.926,102.652 514.632,99.793 508.733,93.97C502.94,88.148 500.044,80.737 500.044,71.949C500.044,63.162 502.94,55.857 508.733,50.034Z" style="fill:rgb(98,99,102);fill-rule:nonzero;"/>
                    <path d="M620.933,108.792C627.476,108.792 632.839,106.781 637.13,102.652C641.528,98.523 643.673,93.229 643.673,86.983C643.673,77.56 638.417,70.679 628.656,68.667C634.663,66.232 638.202,60.939 638.202,53.845C638.202,48.446 636.272,43.893 632.41,40.399C628.548,36.8 623.829,35 618.144,35L595.296,35L595.296,108.792L620.933,108.792ZM603.663,42.623L617.715,42.623C624.687,42.623 629.836,47.493 629.836,54.163C629.836,60.833 624.58,65.809 617.607,65.809L603.663,65.809L603.663,42.623ZM603.663,73.22L620.289,73.22C624.687,73.22 628.227,74.49 631.016,77.137C633.912,79.784 635.306,83.066 635.306,86.983C635.306,95.135 628.978,101.17 620.396,101.17L603.663,101.17L603.663,73.22Z" style="fill:rgb(98,99,102);fill-rule:nonzero;"/>
                    <path d="M670.811,108.792L678.534,90.583L714.79,90.583L722.513,108.792L731.524,108.792L699.88,35L693.444,35L661.801,108.792L670.811,108.792ZM696.662,47.81L711.572,82.96L681.752,82.96L696.662,47.81Z" style="fill:rgb(98,99,102);fill-rule:nonzero;"/>
                    <path d="M795.025,108.792L795.025,101.17L764.24,101.17L764.24,35L755.873,35L755.873,108.792L795.025,108.792Z" style="fill:rgb(98,99,102);fill-rule:nonzero;"/>
                    <path d="M355.235,209.979L355.235,150.268L400.93,209.979L407.688,209.979L407.688,136.187L399.321,136.187L399.321,195.263L354.163,136.187L346.868,136.187L346.868,209.979L355.235,209.979Z" style="fill:rgb(98,99,102);fill-rule:nonzero;"/>
                    <path d="M481.165,209.979L481.165,202.357L446.518,202.357L446.518,174.83L478.376,174.83L478.376,167.207L446.518,167.207L446.518,143.81L480.414,143.81L480.414,136.187L438.152,136.187L438.152,209.979L481.165,209.979Z" style="fill:rgb(98,99,102);fill-rule:nonzero;"/>
                    <path d="M529.864,209.979L529.864,143.81L550.244,143.81L550.244,136.187L501.117,136.187L501.117,143.81L521.497,143.81L521.497,209.979L529.864,209.979Z" style="fill:rgb(98,99,102);fill-rule:nonzero;"/>
                    <path d="M592.722,209.979L611.922,152.915L631.123,209.979L636.486,209.979L658.368,136.187L649.894,136.187L633.268,191.981L614.818,136.187L609.026,136.187L590.576,191.981L573.95,136.187L565.476,136.187L587.358,209.979L592.722,209.979Z" style="fill:rgb(98,99,102);fill-rule:nonzero;"/>
                    <path d="M685.078,200.557C692.693,207.862 701.918,211.462 712.752,211.462C723.586,211.462 732.811,207.862 740.319,200.557C747.935,193.252 751.69,184.041 751.69,173.136C751.69,162.231 747.935,153.126 740.319,145.821C732.811,138.516 723.586,134.811 712.752,134.811C701.918,134.811 692.693,138.516 685.078,145.821C677.569,153.126 673.815,162.231 673.815,173.136C673.815,184.041 677.569,193.252 685.078,200.557ZM690.763,151.221C696.662,145.398 703.956,142.433 712.752,142.433C721.548,142.433 728.842,145.398 734.634,151.221C740.427,157.044 743.323,164.349 743.323,173.136C743.323,181.923 740.427,189.334 734.634,195.157C728.842,200.98 721.548,203.839 712.752,203.839C703.956,203.839 696.662,200.98 690.763,195.157C684.97,189.334 682.074,181.923 682.074,173.136C682.074,164.349 684.97,157.044 690.763,151.221Z" style="fill:rgb(98,99,102);fill-rule:nonzero;"/>
                    <path d="M785.693,209.979L785.693,180.759L802.641,180.759L819.482,209.979L829.028,209.979L811.008,179.171C819.589,175.889 825.274,167.948 825.274,158.208C825.274,151.962 823.129,146.668 818.731,142.539C814.333,138.304 809.077,136.187 802.855,136.187L777.326,136.187L777.326,209.979L785.693,209.979ZM785.693,143.81L802.534,143.81C810.793,143.81 816.907,150.056 816.907,158.208C816.907,162.549 815.513,166.043 812.617,168.901C809.828,171.76 806.288,173.136 801.997,173.136L785.693,173.136L785.693,143.81Z" style="fill:rgb(98,99,102);fill-rule:nonzero;"/>
                    <path d="M861.423,209.979L861.423,186.052L872.256,174.407L898.429,209.979L908.512,209.979L877.834,168.372L907.654,136.187L897.357,136.187L861.423,175.359L861.423,136.187L853.056,136.187L853.056,209.979L861.423,209.979Z" style="fill:rgb(98,99,102);fill-rule:nonzero;"/>
                    <rect x="347.799" y="236.183" width="4.146" height="36.57" style="fill:rgb(46,97,125);fill-rule:nonzero;"/>
                    <path d="M400.106,272.753L400.106,243.161L422.752,272.753L426.101,272.753L426.101,236.183L421.955,236.183L421.955,265.46L399.575,236.183L395.96,236.183L395.96,272.753L400.106,272.753Z" style="fill:rgb(46,97,125);fill-rule:nonzero;"/>
                    <rect x="470.116" y="236.183" width="4.146" height="36.57" style="fill:rgb(46,97,125);fill-rule:nonzero;"/>
                    <path d="M529.228,272.753L529.228,239.961L539.328,239.961L539.328,236.183L514.982,236.183L514.982,239.961L525.082,239.961L525.082,272.753L529.228,272.753Z" style="fill:rgb(46,97,125);fill-rule:nonzero;"/>
                    <rect x="580.047" y="236.183" width="4.146" height="36.57" style="fill:rgb(46,97,125);fill-rule:nonzero;"/>
                    <path d="M629.644,272.753L633.471,263.728L651.439,263.728L655.266,272.753L659.732,272.753L644.05,236.183L640.86,236.183L625.179,272.753L629.644,272.753ZM642.455,242.532L649.844,259.951L635.066,259.951L642.455,242.532Z" style="fill:rgb(46,97,125);fill-rule:nonzero;"/>
                    <path d="M711.455,272.753L711.455,239.961L721.555,239.961L721.555,236.183L697.208,236.183L697.208,239.961L707.308,239.961L707.308,272.753L711.455,272.753Z" style="fill:rgb(46,97,125);fill-rule:nonzero;"/>
                    <rect x="762.805" y="236.183" width="4.146" height="36.57" style="fill:rgb(46,97,125);fill-rule:nonzero;"/>
                    <path d="M826.383,272.753L841.905,236.183L837.386,236.183L824.947,265.88L812.455,236.183L807.937,236.183L823.459,272.753L826.383,272.753Z" style="fill:rgb(46,97,125);fill-rule:nonzero;"/>
                    <path d="M903.994,272.753L903.994,268.975L886.824,268.975L886.824,255.334L902.612,255.334L902.612,251.556L886.824,251.556L886.824,239.961L903.622,239.961L903.622,236.183L882.677,236.183L882.677,272.753L903.994,272.753Z" style="fill:rgb(46,97,125);fill-rule:nonzero;"/>
                </g>
            </g>
        </g>
    </g>
</svg>
